# xmcd
#
# Track frame offsets:
#	150
#	14773
#	29515
#	44243
#
# Disc length: 785 seconds
#
# Revision: 1
# Processed by: cddbd v1.4PL0 Copyright (c) Steve Scherf et al.
# Submitted via: EasyCDDAExtractor 5.0.6
#
DISCID=37030f04
DTITLE=클레오 - CLEO 4th Project Single CD
DYEAR=2003
DGENRE=
TTITLE0=SPY
TTITLE1=동화
TTITLE2=SPY (Instrumental)
TTITLE3=동화 (Instrumental)
EXTD=
EXTT0=
EXTT1=
EXTT2=
EXTT3=
PLAYORDER=
